<?xml version="1.0" encoding="UTF-8"?>
<svg xmlns="http://www.w3.org/2000/svg" xmlns:xlink="http://www.w3.org/1999/xlink" version="1.1" viewBox="0 0 672.5 452.5">
  <!-- Generator: Adobe Illustrator 29.3.1, SVG Export Plug-In . SVG Version: 2.1.0 Build 151)  -->
  <defs>
    <style>
      .st0 {
        stroke: url(#linear-gradient11);
        stroke-width: 71.4px;
      }

      .st0, .st1, .st2, .st3, .st4, .st5, .st6, .st7, .st8, .st9, .st10 {
        fill: none;
      }

      .st1 {
        stroke: url(#linear-gradient12);
        stroke-width: 3.9px;
      }

      .st2 {
        stroke: url(#linear-gradient10);
        stroke-width: 6.1px;
      }

      .st11 {
        font-size: 10px;
      }

      .st11, .st12, .st13, .st14 {
        font-family: Moderat-Regular, Moderat;
      }

      .st12 {
        font-size: 21px;
      }

      .st3 {
        stroke: url(#linear-gradient);
        stroke-width: 5.2px;
      }

      .st13 {
        font-size: 14px;
      }

      .st13, .st14 {
        isolation: isolate;
      }

      .st14 {
        font-size: 16px;
      }

      .st4 {
        stroke: url(#linear-gradient1);
        stroke-width: 2.4px;
      }

      .st5 {
        stroke: url(#linear-gradient5);
        stroke-width: 7.3px;
      }

      .st6 {
        stroke: url(#linear-gradient8);
        stroke-width: 9.4px;
      }

      .st7 {
        stroke: url(#linear-gradient9);
        stroke-width: 23.4px;
      }

      .st8 {
        stroke: url(#linear-gradient2);
        stroke-width: 17.9px;
      }

      .st9 {
        stroke: url(#linear-gradient4);
        stroke-width: 22.8px;
      }

      .st10 {
        stroke: url(#linear-gradient3);
        stroke-width: 20.3px;
      }

      .st15 {
        fill: url(#linear-gradient13);
        stroke: url(#linear-gradient14);
        stroke-width: 77.4px;
      }

      .st16 {
        fill: url(#linear-gradient6);
        stroke: url(#linear-gradient7);
        stroke-width: 22.5px;
      }
    </style>
    <linearGradient id="linear-gradient" x1="128.7" y1="102.1" x2="558.7" y2="102.1" gradientUnits="userSpaceOnUse">
      <stop offset="0" stop-color="#fff"/>
      <stop offset="1" stop-color="#0b2566"/>
    </linearGradient>
    <linearGradient id="linear-gradient1" y1="95.8" y2="95.8" xlink:href="#linear-gradient"/>
    <linearGradient id="linear-gradient2" x1="128.7" y1="183.4" x2="558.7" y2="183.4" gradientUnits="userSpaceOnUse">
      <stop offset="0" stop-color="#fff"/>
      <stop offset="1" stop-color="#ba0582"/>
    </linearGradient>
    <linearGradient id="linear-gradient3" x1="128.7" y1="133.3" x2="558.7" y2="133.3" gradientUnits="userSpaceOnUse">
      <stop offset="0" stop-color="#fff"/>
      <stop offset="1" stop-color="#242ef7"/>
    </linearGradient>
    <linearGradient id="linear-gradient4" y1="218.9" y2="218.9" xlink:href="#linear-gradient2"/>
    <linearGradient id="linear-gradient5" y1="163.5" y2="163.5" xlink:href="#linear-gradient3"/>
    <linearGradient id="linear-gradient6" x1="128.7" y1="247.7" x2="558.7" y2="247.7" gradientUnits="userSpaceOnUse">
      <stop offset="0" stop-color="#fff"/>
      <stop offset="1" stop-color="#d400ae"/>
    </linearGradient>
    <linearGradient id="linear-gradient7" y1="247.7" y2="247.7" xlink:href="#linear-gradient2"/>
    <linearGradient id="linear-gradient8" y1="185.6" y2="185.6" xlink:href="#linear-gradient3"/>
    <linearGradient id="linear-gradient9" y1="277.8" y2="277.8" xlink:href="#linear-gradient2"/>
    <linearGradient id="linear-gradient10" y1="207.5" y2="207.5" xlink:href="#linear-gradient3"/>
    <linearGradient id="linear-gradient11" y1="330.7" y2="330.7" xlink:href="#linear-gradient2"/>
    <linearGradient id="linear-gradient12" y1="224.7" y2="224.7" xlink:href="#linear-gradient"/>
    <linearGradient id="linear-gradient13" x1="128.7" y1="289.4" x2="558.7" y2="289.4" gradientUnits="userSpaceOnUse">
      <stop offset="0" stop-color="#fff"/>
      <stop offset="1" stop-color="#000"/>
    </linearGradient>
    <linearGradient id="linear-gradient14" y1="289.4" y2="289.4" xlink:href="#linear-gradient3"/>
  </defs>
  <g id="nodes">
    <rect x="123.7" y="87.1" width="5" height="2.4"/>
    <rect x="123.7" y="94.5" width="5" height="5.2"/>
    <rect x="558.7" y="102.1" width="5" height="11.5"/>
    <rect x="123.7" y="104.7" width="5" height="17.9"/>
    <rect x="123.7" y="127.6" width="5" height="20.3"/>
    <rect x="123.7" y="153" width="5" height="22.8"/>
    <rect x="123.7" y="180.7" width="5" height="29.8"/>
    <rect x="123.7" y="215.5" width="5" height="32.8"/>
    <rect x="123.7" y="253.3" width="5" height="77.4"/>
    <rect x="123.7" y="335.7" width="5" height="81.4"/>
    <rect x="558.7" y="118.7" width="5" height="120.6"/>
    <rect x="558.7" y="244.2" width="5" height="157.9"/>
  </g>
  <g id="Uruguay_x5F_China">
    <path class="st3" d="M128.7,97.1c215,0,215,10,430,10"/>
  </g>
  <g id="Pakistan_x5F_China">
    <path class="st4" d="M128.7,88.3c215,0,215,15,430,15"/>
  </g>
  <g id="Spain_x5F_US">
    <path class="st8" d="M128.7,113.7c215,0,215,139.5,430,139.5"/>
  </g>
  <g id="Germany_x5F_Russia">
    <path class="st10" d="M128.7,137.8c215,0,215-9,430-9"/>
  </g>
  <g id="Italy_x5F_US">
    <path class="st9" d="M128.7,164.4c215,0,215,109.2,430,109.2"/>
  </g>
  <g id="Canada_x5F_Russia">
    <path class="st5" d="M128.7,184.4c215,0,215-41.7,430-41.7"/>
  </g>
  <g id="Canada_x5F_US">
    <path class="st16" d="M128.7,199.3c215,0,215,96.9,430,96.9"/>
  </g>
  <g id="Japan_x5F_Russia">
    <path class="st6" d="M128.7,220.2c215,0,215-69.2,430-69.2"/>
  </g>
  <g id="Japan_x5F_US">
    <path class="st7" d="M128.7,236.6c215,0,215,82.5,430,82.5"/>
  </g>
  <g id="UK_x5F_Russia">
    <path class="st2" d="M128.7,256.3c215,0,215-97.6,430-97.6"/>
  </g>
  <g id="UK_x5F_US">
    <path class="st0" d="M128.7,295.1c215,0,215,71.4,430,71.4"/>
  </g>
  <g id="US_x5F_China">
    <path class="st1" d="M128.7,337.7c215,0,215-226,430-226"/>
  </g>
  <g id="text">
    <text class="st12" transform="translate(7.1 22.9)"><tspan x="0" y="0">Top customers for US, China and Russia’s space launch sites</tspan></text>
    <g>
      <path d="M14.3,40.6c0,.7-.3,1.3-.9,1.8s-1.3.7-2.1.7-1.8-.3-2.4-.8c-.6-.6-1-1.2-1-2h1.2c0,.5.3.9.7,1.2s.9.5,1.5.5.9-.1,1.2-.3c.4-.2.5-.5.5-1s-.2-.7-.5-.9c-.3-.2-.8-.5-1.5-.8-.4-.1-.6-.3-.8-.3-.2,0-.4-.2-.8-.4-.3-.2-.6-.4-.7-.5s-.3-.4-.4-.6c-.1-.3-.2-.5-.2-.9,0-.7.3-1.3.9-1.7.6-.4,1.3-.7,2.1-.7s1.6.3,2.1.8.8,1.1.8,1.7h-1.2c0-.4-.2-.7-.5-1-.3-.3-.7-.4-1.3-.4s-.9.1-1.2.3-.5.5-.5.9c0,.6.6,1.1,1.8,1.6,0,0,.1,0,.1,0,.3.1.5.2.6.3.1,0,.3.1.6.3.3.1.5.2.6.3.1,0,.3.2.5.4.2.2.3.3.4.5,0,.2.2.3.2.5s.1.4.1.7Z"/>
      <path d="M16.5,35.3c-.2,0-.4,0-.6-.2-.2-.2-.2-.4-.2-.6s0-.4.2-.6c.2-.2.4-.2.6-.2s.4,0,.6.2c.2.2.2.4.2.6s0,.4-.2.6c-.2.2-.4.2-.6.2ZM17.1,36.4v6.5h-1.1v-6.5h1.1Z"/>
      <path d="M22.2,36.4c.8,0,1.4.3,1.8.8s.6,1.3.6,2.2v3.5h-1.1v-3.1c0-.3,0-.6,0-.9,0-.3-.1-.5-.2-.8,0-.3-.3-.5-.5-.6-.2-.1-.5-.2-.8-.2-.5,0-.9.2-1.3.5-.3.3-.5.8-.5,1.4v3.7h-1.1v-6.5h.8l.2.7h.2c.5-.5,1.1-.8,1.9-.8Z"/>
      <path d="M32.2,40.7c-.1.7-.5,1.3-1.1,1.7-.6.4-1.2.7-1.9.7s-1.6-.3-2.2-1c-.6-.6-.9-1.4-.9-2.4s.3-1.7.9-2.4c.6-.6,1.4-1,2.2-1s1.4.2,1.9.7c.6.5.9,1,1.1,1.8h-1.2c-.1-.4-.4-.7-.7-1-.3-.3-.7-.4-1.1-.4s-1.1.2-1.4.6c-.4.4-.6,1-.6,1.6s.2,1.2.6,1.6c.4.4.8.6,1.4.6s.8-.1,1.1-.4.6-.5.7-.9h1.2Z"/>
      <path d="M34.4,37.3c.6-.6,1.3-.9,2.2-.9s1.6.3,2.2.9.9,1.5.8,2.7h-4.9c0,.6.3,1.1.6,1.4s.8.5,1.4.5,1.3-.3,1.6-.8h1.2c-.2.6-.6,1-1.1,1.4-.5.3-1.1.5-1.7.5-.8,0-1.6-.3-2.2-.9s-.9-1.4-.9-2.4.3-1.8.9-2.4ZM37.7,37.8c-.3-.3-.7-.5-1.2-.5s-.9.2-1.2.5c-.3.3-.6.7-.7,1.2h3.7c0-.5-.3-.9-.6-1.2Z"/>
      <path d="M45.6,42.9v-6.1h-1.6v-.9h.9c.2,0,.4,0,.5-.2.1-.1.2-.3.2-.5v-.6h1.1v8.3s-1.1,0-1.1,0Z"/>
      <path d="M51.3,39.9c-.7,0-1.3-.3-1.8-.8-.5-.5-.8-1.2-.8-2s.3-1.5.8-1.9c.5-.5,1.2-.7,1.9-.7s1.4.2,1.9.7c.5.5.8,1.2.8,2s-.1.9-.3,1.4c-.3.7-1.1,2.1-2.4,4.3h-1.4l2-3.2c-.2.1-.4.2-.8.2ZM51.4,35.6c-.5,0-.8.1-1.1.4s-.4.7-.4,1.2.1.9.4,1.2.7.4,1.1.4.8-.1,1.1-.4.4-.7.4-1.2-.1-.9-.4-1.2c-.3-.3-.7-.4-1.1-.4Z"/>
      <path d="M58.4,37.4c.8,0,1.5.3,2,.8.5.5.8,1.2.8,2.1s-.3,1.6-.8,2.1c-.5.5-1.2.7-2,.7s-1.6-.3-2-.8c-.5-.5-.7-1.1-.7-1.8h1.1c0,.4.2.7.5,1,.3.3.7.5,1.2.5s.8-.2,1.1-.5c.3-.3.4-.7.4-1.3s-.1-1-.4-1.3c-.3-.3-.7-.5-1.3-.5s-1.3.3-1.6.8l-.9-.3.4-4.3h4.6v1.1h-3.6l-.2,2.1c.4-.3.9-.4,1.5-.4Z"/>
      <path d="M62.5,34.6h5.3v.7c-1.1,1-1.9,2.1-2.3,3.3-.4,1.2-.7,2.6-.7,4.3h-1.2c0-1.8.3-3.3.8-4.5.5-1.2,1-2.1,1.7-2.7h-3.6v-1.1Z"/>
      <path d="M67.5,41.5c.3,0,.4,0,.6.3.1.2.2.4.2.8s0,.7-.3,1.1c-.2.3-.4.6-.6.7l-.3.2-.4-.4c.3-.3.6-.7.6-1.2-.2,0-.4,0-.5-.2s-.2-.3-.2-.5,0-.4.2-.5.3-.2.5-.2Z"/>
      <path d="M74.7,41.8h4.7v1.1h-5.9v-9.1h5.7v1.1h-4.5v2.8h4.1v1.1h-4.1v2.9Z"/>
      <path d="M85,36.4h1.1v6.5h-.8l-.2-.7h-.2c-.4.5-1,.8-1.8.8s-1.4-.3-1.9-.8c-.4-.5-.6-1.3-.6-2.2v-3.5h1.1v3.1c0,1.6.5,2.4,1.6,2.4s1.6-.7,1.6-2.1v-3.4Z"/>
      <path d="M90.9,36.4h.4v1.1c-.2,0-.4,0-.5,0-.5,0-.8.1-1.2.4-.3.3-.5.7-.5,1.2v3.8h-1.1v-6.5h.8l.2.7h.2c.5-.5,1-.8,1.8-.8Z"/>
      <path d="M95.2,43c-.8,0-1.6-.3-2.2-1-.6-.6-.9-1.4-.9-2.4s.3-1.7.9-2.4c.6-.6,1.4-1,2.2-1s1.6.3,2.2,1c.6.6.9,1.4.9,2.4s-.3,1.7-.9,2.4c-.6.6-1.3.9-2.2.9ZM93.8,41.3c.4.4.8.6,1.4.6s1.1-.2,1.4-.6c.4-.4.6-1,.6-1.6s-.2-1.2-.6-1.6c-.4-.4-.8-.6-1.4-.6s-1.1.2-1.4.6c-.4.4-.6,1-.6,1.6s.2,1.2.6,1.6Z"/>
      <path d="M102.9,36.4c.8,0,1.5.3,2.1.9s.9,1.4.9,2.4-.3,1.7-.9,2.4-1.3.9-2.1.9-1.5-.3-2-1v3.6h-1.1v-9.1h.8l.2.8h.2c.5-.6,1.1-.9,1.9-.9ZM102.8,41.9c.5,0,1-.2,1.4-.6s.6-1,.6-1.6-.2-1.2-.6-1.6-.8-.6-1.4-.6-.9.2-1.3.6-.6.9-.6,1.7.2,1.3.6,1.7c.4.4.8.6,1.3.6Z"/>
      <path d="M108.1,37.3c.6-.6,1.3-.9,2.2-.9s1.6.3,2.2.9c.6.6.9,1.5.8,2.7h-4.9c0,.6.3,1.1.6,1.4s.8.5,1.4.5,1.3-.3,1.6-.8h1.2c-.2.6-.6,1-1.1,1.4-.5.3-1.1.5-1.7.5-.8,0-1.6-.3-2.2-.9s-.9-1.4-.9-2.4.3-1.8.9-2.4ZM111.4,37.8c-.3-.3-.7-.5-1.2-.5s-.9.2-1.2.5-.6.7-.7,1.2h3.7c0-.5-.3-.9-.6-1.2Z"/>
      <path d="M119.4,41.3c0,.3,0,.5.2.6.1.1.3.2.5.2v.9h-.5c-.6,0-1-.3-1.2-.8-.4.6-1.1.8-1.9.8s-1.2-.2-1.6-.5-.6-.8-.6-1.4.1-.8.3-1.1.5-.5,1-.7c.5-.2.8-.3,1.1-.3.3,0,.7-.1,1.3-.2.1,0,.2,0,.3,0,0-1-.5-1.4-1.4-1.4s-.4,0-.6,0c-.2,0-.3.1-.4.2,0,0-.2.2-.2.2s0,.1-.1.2h0c0,0-1.1,0-1.1,0,0-.5.3-.9.7-1.3.4-.4,1-.5,1.7-.5s1.3.2,1.7.6c.4.4.6,1.1.6,2v2.2ZM115.5,41.1c0,.4.2.7.7.8.5.1,1,0,1.4-.2.5-.3.7-.7.7-1.2v-.7c-.5,0-.8,0-1.1.1-.3,0-.6.1-.9.2-.3,0-.5.2-.7.4-.1.2-.2.4-.2.6Z"/>
      <path d="M124.5,36.4c.8,0,1.4.3,1.8.8.4.5.6,1.3.6,2.2v3.5h-1.1v-3.1c0-.3,0-.6,0-.9,0-.3-.1-.5-.2-.8,0-.3-.3-.5-.5-.6-.2-.1-.5-.2-.8-.2-.5,0-.9.2-1.3.5-.3.3-.5.8-.5,1.4v3.7h-1.1v-6.5h.8l.2.7h.2c.5-.5,1.1-.8,1.9-.8Z"/>
      <path d="M138,40.7c-.1.7-.5,1.3-1.1,1.7-.6.4-1.2.7-1.9.7s-1.6-.3-2.2-1c-.6-.6-.9-1.4-.9-2.4s.3-1.7.9-2.4c.6-.6,1.4-1,2.2-1s1.3.2,1.9.7.9,1,1.1,1.8h-1.2c-.1-.4-.4-.7-.7-1-.3-.3-.7-.4-1.1-.4s-1.1.2-1.4.6-.6,1-.6,1.6.2,1.2.6,1.6.8.6,1.4.6.8-.1,1.1-.4.6-.5.7-.9h1.2Z"/>
      <path d="M142.5,43c-.8,0-1.6-.3-2.2-1-.6-.6-.9-1.4-.9-2.4s.3-1.7.9-2.4c.6-.6,1.4-1,2.2-1s1.6.3,2.2,1c.6.6.9,1.4.9,2.4s-.3,1.7-.9,2.4c-.6.6-1.3.9-2.2.9ZM141,41.3c.4.4.8.6,1.4.6s1.1-.2,1.4-.6c.4-.4.6-1,.6-1.6s-.2-1.2-.6-1.6c-.4-.4-.8-.6-1.4-.6s-1.1.2-1.4.6-.6,1-.6,1.6.2,1.2.6,1.6Z"/>
      <path d="M151.4,36.4h1.1v6.5h-.8l-.2-.7h-.2c-.4.5-1,.8-1.8.8s-1.4-.3-1.9-.8-.6-1.3-.6-2.2v-3.5h1.1v3.1c0,1.6.5,2.4,1.6,2.4s1.6-.7,1.6-2.1v-3.4Z"/>
      <path d="M157.4,36.4c.8,0,1.4.3,1.8.8.4.5.6,1.3.6,2.2v3.5h-1.1v-3.1c0-.3,0-.6,0-.9,0-.3-.1-.5-.2-.8,0-.3-.3-.5-.5-.6-.2-.1-.5-.2-.8-.2-.5,0-.9.2-1.3.5-.3.3-.5.8-.5,1.4v3.7h-1.1v-6.5h.8l.2.7h.2c.5-.5,1.1-.8,1.9-.8Z"/>
      <path d="M164.5,41.8l.5.8c-.3.3-.7.4-1.1.4s-1-.2-1.3-.6c-.3-.4-.5-.9-.5-1.5v-3.6h-1.1v-.8h.4c.3,0,.5,0,.6-.2s.2-.4.2-.6v-1.2h1v2h1.6v.9h-1.6v3.5c0,.7.3,1.1.8,1.1s.4,0,.5-.2Z"/>
      <path d="M169.2,36.4h.4v1.1c-.2,0-.4,0-.5,0-.5,0-.8.1-1.2.4s-.5.7-.5,1.2v3.8h-1.1v-6.5h.8l.2.7h.2c.5-.5,1-.8,1.8-.8Z"/>
      <path d="M171.7,35.3c-.2,0-.4,0-.6-.2s-.2-.4-.2-.6,0-.4.2-.6c.2-.2.4-.2.6-.2s.4,0,.6.2c.2.2.2.4.2.6s0,.4-.2.6c-.2.2-.4.2-.6.2ZM172.3,36.4v6.5h-1.1v-6.5h1.1Z"/>
      <path d="M174.8,37.3c.6-.6,1.3-.9,2.2-.9s1.6.3,2.2.9c.6.6.9,1.5.8,2.7h-4.9c0,.6.3,1.1.6,1.4s.8.5,1.4.5,1.3-.3,1.6-.8h1.2c-.2.6-.6,1-1.1,1.4-.5.3-1.1.5-1.7.5-.8,0-1.6-.3-2.2-.9s-.9-1.4-.9-2.4.3-1.8.9-2.4ZM178.1,37.8c-.3-.3-.7-.5-1.2-.5s-.9.2-1.2.5-.6.7-.7,1.2h3.7c0-.5-.3-.9-.6-1.2Z"/>
      <path d="M185.9,41.1c0,.6-.2,1.1-.6,1.4-.4.3-1,.5-1.6.5s-1.3-.2-1.8-.6-.7-.9-.7-1.5h1.1c0,.4.1.7.4.9.3.2.6.3,1,.3s.6,0,.8-.2c.2-.2.3-.4.3-.7s-.1-.5-.3-.7c-.2-.1-.6-.3-1-.4-.2,0-.4-.1-.6-.2-.1,0-.3-.1-.5-.2s-.4-.2-.5-.3c-.1-.1-.2-.3-.3-.5,0-.2-.1-.4-.1-.7,0-.6.2-1,.6-1.3.4-.3.9-.5,1.5-.5s1.2.2,1.6.6.6.8.6,1.3h-1.1c0-.2-.1-.5-.3-.6-.2-.2-.5-.3-.9-.3s-.6,0-.8.2c-.2.2-.3.4-.3.6s.1.5.3.6c.2.1.5.3.9.4.3,0,.5.1.6.2.2,0,.3.1.6.2.2.1.4.2.5.3.1.1.2.3.3.5,0,.2.1.4.1.7Z"/>
      <path d="M194.4,36.4c.8,0,1.4.3,1.8.8.4.6.6,1.3.6,2.2v3.5h-1.1v-3.1c0-.3,0-.6,0-.9,0-.3-.1-.5-.2-.8,0-.3-.3-.5-.5-.6-.2-.1-.5-.2-.8-.2-.5,0-.9.2-1.3.5-.3.3-.5.8-.5,1.4v3.7h-1.1v-9.2h1.1v3.4h.1c.4-.5,1-.8,1.8-.8Z"/>
      <path d="M203.4,41.3c0,.3,0,.5.2.6.1.1.3.2.5.2v.9h-.5c-.6,0-1-.3-1.2-.8-.4.6-1.1.8-1.9.8s-1.2-.2-1.6-.5-.6-.8-.6-1.4.1-.8.3-1.1.5-.5,1-.7c.5-.2.8-.3,1.1-.3.3,0,.7-.1,1.3-.2.1,0,.2,0,.3,0,0-1-.5-1.4-1.4-1.4s-.4,0-.6,0c-.2,0-.3.1-.4.2,0,0-.2.2-.2.2s0,.1-.1.2h0c0,0-1.1,0-1.1,0,0-.5.3-.9.7-1.3.4-.4,1-.5,1.7-.5s1.3.2,1.7.6c.4.4.6,1.1.6,2v2.2ZM199.5,41.1c0,.4.2.7.7.8.5.1,1,0,1.4-.2.5-.3.7-.7.7-1.2v-.7c-.5,0-.8,0-1.1.1-.3,0-.6.1-.9.2-.3,0-.5.2-.7.4-.1.2-.2.4-.2.6Z"/>
      <path d="M209.2,36.4h1.2l-2.1,6.5h-1.7l-2.1-6.5h1.2l1.7,5.6h.2l1.7-5.6Z"/>
      <path d="M212,37.3c.6-.6,1.3-.9,2.2-.9s1.6.3,2.2.9c.6.6.9,1.5.8,2.7h-4.9c0,.6.3,1.1.6,1.4s.8.5,1.4.5,1.3-.3,1.6-.8h1.2c-.2.6-.6,1-1.1,1.4s-1.1.5-1.7.5c-.8,0-1.6-.3-2.2-.9s-.9-1.4-.9-2.4.3-1.8.9-2.4ZM215.4,37.8c-.3-.3-.7-.5-1.2-.5s-.9.2-1.2.5c-.3.3-.6.7-.7,1.2h3.7c0-.5-.3-.9-.6-1.2Z"/>
      <path d="M226.8,36.4h1.1v6.5h-.8l-.2-.7h-.2c-.4.5-1,.8-1.8.8s-1.4-.3-1.9-.8-.6-1.3-.6-2.2v-3.5h1.1v3.1c0,1.6.5,2.4,1.6,2.4s1.6-.7,1.6-2.1v-3.4Z"/>
      <path d="M234.3,41.1c0,.6-.2,1.1-.6,1.4-.4.3-1,.5-1.6.5s-1.3-.2-1.8-.6-.7-.9-.7-1.5h1.1c0,.4.1.7.4.9.3.2.6.3,1,.3s.6,0,.8-.2c.2-.2.3-.4.3-.7s-.1-.5-.3-.7c-.2-.1-.6-.3-1-.4-.2,0-.4-.1-.6-.2-.1,0-.3-.1-.5-.2s-.4-.2-.5-.3c-.1-.1-.2-.3-.3-.5,0-.2-.1-.4-.1-.7,0-.6.2-1,.6-1.3.4-.3.9-.5,1.5-.5s1.2.2,1.6.6.6.8.6,1.3h-1.1c0-.2-.1-.5-.3-.6-.2-.2-.5-.3-.9-.3s-.6,0-.8.2c-.2.2-.3.4-.3.6s.1.5.3.6c.2.1.5.3.9.4.3,0,.5.1.6.2.2,0,.3.1.6.2.2.1.4.2.5.3.1.1.2.3.3.5,0,.2.1.4.1.7Z"/>
      <path d="M236.5,37.3c.6-.6,1.3-.9,2.2-.9s1.6.3,2.2.9c.6.6.9,1.5.8,2.7h-4.9c0,.6.3,1.1.6,1.4s.8.5,1.4.5,1.3-.3,1.6-.8h1.2c-.2.6-.6,1-1.1,1.4s-1.1.5-1.7.5c-.8,0-1.6-.3-2.2-.9s-.9-1.4-.9-2.4.3-1.8.9-2.4ZM239.9,37.8c-.3-.3-.7-.5-1.2-.5s-.9.2-1.2.5c-.3.3-.6.7-.7,1.2h3.7c0-.5-.3-.9-.6-1.2Z"/>
      <path d="M247.9,33.7h1.1v9.2h-.8l-.2-.8h-.2c-.5.6-1.1.9-1.9.9s-1.5-.3-2.1-.9c-.6-.6-.9-1.4-.9-2.4s.3-1.7.9-2.4c.6-.6,1.3-.9,2.1-.9s1.5.3,2,1v-3.7ZM244.7,38.1c-.4.4-.6,1-.6,1.6s.2,1.2.6,1.6c.4.4.8.6,1.4.6s.9-.2,1.3-.6c.4-.4.6-.9.6-1.7s-.2-1.3-.6-1.7-.8-.6-1.3-.6-1,.2-1.4.6Z"/>
      <path d="M254.6,33.7h1.1v9.2h-1.1v-9.2Z"/>
      <path d="M262.5,41.3c0,.3,0,.5.2.6.1.1.3.2.5.2v.9h-.5c-.6,0-1-.3-1.2-.8-.4.6-1.1.8-1.9.8s-1.2-.2-1.6-.5c-.4-.4-.6-.8-.6-1.4s.1-.8.3-1.1.6-.5,1-.7c.5-.2.8-.3,1.1-.3.3,0,.7-.1,1.3-.2.1,0,.2,0,.3,0,0-1-.5-1.4-1.4-1.4s-.4,0-.6,0c-.2,0-.3.1-.4.2s-.2.2-.2.2c0,0,0,.1-.1.2h0c0,0-1.1,0-1.1,0,0-.5.3-.9.7-1.3.4-.4,1-.5,1.7-.5s1.3.2,1.7.6c.4.4.6,1.1.6,2v2.2ZM258.5,41.1c0,.4.2.7.7.8.5.1,1,0,1.4-.2.5-.3.7-.7.7-1.2v-.7c-.5,0-.8,0-1.1.1-.3,0-.6.1-.9.2s-.5.2-.7.4c-.1.2-.2.4-.2.6Z"/>
      <path d="M268.7,36.4h1.1v6.5h-.8l-.2-.7h-.2c-.4.5-1,.8-1.8.8s-1.4-.3-1.9-.8c-.4-.5-.6-1.3-.6-2.2v-3.5h1.1v3.1c0,1.6.5,2.4,1.6,2.4s1.6-.7,1.6-2.1v-3.4Z"/>
      <path d="M274.7,36.4c.8,0,1.4.3,1.8.8.4.5.6,1.3.6,2.2v3.5h-1.1v-3.1c0-.3,0-.6,0-.9,0-.3-.1-.5-.2-.8,0-.3-.3-.5-.5-.6-.2-.1-.5-.2-.8-.2-.5,0-.9.2-1.3.5s-.5.8-.5,1.4v3.7h-1.1v-6.5h.8l.2.7h.2c.5-.5,1.1-.8,1.9-.8Z"/>
      <path d="M284.7,40.7c-.1.7-.5,1.3-1.1,1.7-.6.4-1.2.7-1.9.7s-1.6-.3-2.2-1c-.6-.6-.9-1.4-.9-2.4s.3-1.7.9-2.4c.6-.6,1.4-1,2.2-1s1.3.2,1.9.7.9,1,1.1,1.8h-1.2c-.1-.4-.4-.7-.7-1-.3-.3-.7-.4-1.1-.4s-1.1.2-1.4.6-.6,1-.6,1.6.2,1.2.6,1.6.8.6,1.4.6.8-.1,1.1-.4.6-.5.7-.9h1.2Z"/>
      <path d="M289.3,36.4c.8,0,1.4.3,1.8.8.4.6.6,1.3.6,2.2v3.5h-1.1v-3.1c0-.3,0-.6,0-.9,0-.3-.1-.5-.2-.8,0-.3-.3-.5-.5-.6-.2-.1-.5-.2-.8-.2-.5,0-.9.2-1.3.5s-.5.8-.5,1.4v3.7h-1.1v-9.2h1.1v3.4h.1c.4-.5,1-.8,1.8-.8Z"/>
      <path d="M301.4,41.1c0,.6-.2,1.1-.6,1.4-.4.3-1,.5-1.6.5s-1.3-.2-1.8-.6-.7-.9-.7-1.5h1.1c0,.4.1.7.4.9.3.2.6.3,1,.3s.6,0,.8-.2c.2-.2.3-.4.3-.7s-.1-.5-.3-.7c-.2-.1-.6-.3-1-.4-.2,0-.4-.1-.6-.2-.1,0-.3-.1-.5-.2s-.4-.2-.5-.3c-.1-.1-.2-.3-.3-.5,0-.2-.1-.4-.1-.7,0-.6.2-1,.6-1.3.4-.3.9-.5,1.5-.5s1.2.2,1.6.6.6.8.6,1.3h-1.1c0-.2-.1-.5-.3-.6-.2-.2-.5-.3-.9-.3s-.6,0-.8.2c-.2.2-.3.4-.3.6s.1.5.3.6c.2.1.5.3.9.4.3,0,.5.1.6.2.2,0,.3.1.6.2.2.1.4.2.5.3.1.1.2.3.3.5,0,.2.1.4.1.7Z"/>
      <path d="M303.6,35.3c-.2,0-.4,0-.6-.2s-.2-.4-.2-.6,0-.4.2-.6c.2-.2.4-.2.6-.2s.4,0,.6.2c.2.2.2.4.2.6s0,.4-.2.6c-.2.2-.4.2-.6.2ZM304.2,36.4v6.5h-1.1v-6.5h1.1Z"/>
      <path d="M309.1,41.8l.5.8c-.3.3-.7.4-1.1.4s-1-.2-1.3-.6-.5-.9-.5-1.5v-3.6h-1.1v-.8h.4c.3,0,.5,0,.6-.2.2-.2.2-.4.2-.6v-1.2h1v2h1.6v.9h-1.6v3.5c0,.7.3,1.1.8,1.1s.4,0,.5-.2Z"/>
      <path d="M311.2,37.3c.6-.6,1.3-.9,2.2-.9s1.6.3,2.2.9c.6.6.9,1.5.8,2.7h-4.9c0,.6.3,1.1.6,1.4s.8.5,1.4.5,1.3-.3,1.6-.8h1.2c-.2.6-.6,1-1.1,1.4s-1.1.5-1.7.5c-.8,0-1.6-.3-2.2-.9s-.9-1.4-.9-2.4.3-1.8.9-2.4ZM314.5,37.8c-.3-.3-.7-.5-1.2-.5s-.9.2-1.2.5c-.3.3-.6.7-.7,1.2h3.7c0-.5-.3-.9-.6-1.2Z"/>
      <path d="M322.3,41.1c0,.6-.2,1.1-.6,1.4-.4.3-1,.5-1.6.5s-1.3-.2-1.8-.6-.7-.9-.7-1.5h1.1c0,.4.1.7.4.9.3.2.6.3,1,.3s.6,0,.8-.2c.2-.2.3-.4.3-.7s-.1-.5-.3-.7c-.2-.1-.6-.3-1-.4-.2,0-.4-.1-.6-.2-.1,0-.3-.1-.5-.2s-.4-.2-.5-.3c-.1-.1-.2-.3-.3-.5,0-.2-.1-.4-.1-.7,0-.6.2-1,.6-1.3.4-.3.9-.5,1.5-.5s1.2.2,1.6.6.6.8.6,1.3h-1.1c0-.2-.1-.5-.3-.6-.2-.2-.5-.3-.9-.3s-.6,0-.8.2c-.2.2-.3.4-.3.6s.1.5.3.6c.2.1.5.3.9.4.3,0,.5.1.6.2.2,0,.3.1.6.2.2.1.4.2.5.3.1.1.2.3.3.5,0,.2.1.4.1.7Z"/>
      <path d="M328.6,35.3c-.2,0-.4,0-.6-.2-.2-.2-.2-.4-.2-.6s0-.4.2-.6c.2-.2.4-.2.6-.2s.4,0,.6.2c.2.2.2.4.2.6s0,.4-.2.6-.4.2-.6.2ZM329.1,36.4v6.5h-1.1v-6.5h1.1Z"/>
      <path d="M334.2,36.4c.8,0,1.4.3,1.8.8.4.5.6,1.3.6,2.2v3.5h-1.1v-3.1c0-.3,0-.6,0-.9,0-.3-.1-.5-.2-.8,0-.3-.3-.5-.5-.6-.2-.1-.5-.2-.8-.2-.5,0-.9.2-1.3.5s-.5.8-.5,1.4v3.7h-1.1v-6.5h.8l.2.7h.2c.5-.5,1.1-.8,1.9-.8Z"/>
      <path d="M345,41.8l.5.8c-.3.3-.7.4-1.1.4s-1-.2-1.3-.6-.5-.9-.5-1.5v-3.6h-1.1v-.8h.4c.3,0,.5,0,.6-.2.2-.2.2-.4.2-.6v-1.2h1v2h1.6v.9h-1.6v3.5c0,.7.3,1.1.8,1.1s.4,0,.5-.2Z"/>
      <path d="M349.8,36.4c.8,0,1.4.3,1.8.8.4.6.6,1.3.6,2.2v3.5h-1.1v-3.1c0-.3,0-.6,0-.9,0-.3-.1-.5-.2-.8,0-.3-.3-.5-.5-.6-.2-.1-.5-.2-.8-.2-.5,0-.9.2-1.3.5-.3.3-.5.8-.5,1.4v3.7h-1.1v-9.2h1.1v3.4h.1c.4-.5,1-.8,1.8-.8Z"/>
      <path d="M354.7,37.3c.6-.6,1.3-.9,2.2-.9s1.6.3,2.2.9c.6.6.9,1.5.8,2.7h-4.9c0,.6.3,1.1.6,1.4s.8.5,1.4.5,1.3-.3,1.6-.8h1.2c-.2.6-.6,1-1.1,1.4-.5.3-1.1.5-1.7.5-.8,0-1.6-.3-2.2-.9s-.9-1.4-.9-2.4.3-1.8.9-2.4ZM358,37.8c-.3-.3-.7-.5-1.2-.5s-.9.2-1.2.5-.6.7-.7,1.2h3.7c0-.5-.3-.9-.6-1.2Z"/>
      <path d="M365.8,41.1c0,.6-.2,1.1-.6,1.4s-1,.5-1.6.5-1.3-.2-1.8-.6c-.5-.4-.7-.9-.7-1.5h1.1c0,.4.1.7.4.9.3.2.6.3,1,.3s.6,0,.8-.2c.2-.2.3-.4.3-.7s-.1-.5-.3-.7c-.2-.1-.6-.3-1-.4-.2,0-.4-.1-.6-.2-.1,0-.3-.1-.5-.2-.2-.1-.4-.2-.5-.3-.1-.1-.2-.3-.3-.5,0-.2-.1-.4-.1-.7,0-.6.2-1,.6-1.3.4-.3.9-.5,1.5-.5s1.2.2,1.6.6c.4.4.6.8.6,1.3h-1.1c0-.2-.1-.5-.3-.6-.2-.2-.5-.3-.9-.3s-.6,0-.8.2c-.2.2-.3.4-.3.6s.1.5.3.6c.2.1.5.3.9.4.3,0,.5.1.6.2.2,0,.3.1.6.2.2.1.4.2.5.3.1.1.2.3.3.5,0,.2.1.4.1.7Z"/>
      <path d="M368,37.3c.6-.6,1.3-.9,2.2-.9s1.6.3,2.2.9c.6.6.9,1.5.8,2.7h-4.9c0,.6.3,1.1.6,1.4s.8.5,1.4.5,1.3-.3,1.6-.8h1.2c-.2.6-.6,1-1.1,1.4-.5.3-1.1.5-1.7.5-.8,0-1.6-.3-2.2-.9s-.9-1.4-.9-2.4.3-1.8.9-2.4ZM371.4,37.8c-.3-.3-.7-.5-1.2-.5s-.9.2-1.2.5-.6.7-.7,1.2h3.7c0-.5-.3-.9-.6-1.2Z"/>
      <path d="M381.3,41.8l.5.8c-.3.3-.7.4-1.1.4s-1-.2-1.3-.6c-.3-.4-.5-.9-.5-1.5v-3.6h-1.1v-.8h.4c.3,0,.5,0,.6-.2s.2-.4.2-.6v-1.2h1v2h1.6v.9h-1.6v3.5c0,.7.3,1.1.8,1.1s.4,0,.5-.2Z"/>
      <path d="M386.2,36.4c.8,0,1.4.3,1.8.8.4.6.6,1.3.6,2.2v3.5h-1.1v-3.1c0-.3,0-.6,0-.9,0-.3-.1-.5-.2-.8,0-.3-.3-.5-.5-.6-.2-.1-.5-.2-.8-.2-.5,0-.9.2-1.3.5s-.5.8-.5,1.4v3.7h-1.1v-9.2h1.1v3.4h.1c.4-.5,1-.8,1.8-.8Z"/>
      <path d="M393.3,36.4h.4v1.1c-.2,0-.4,0-.5,0-.5,0-.8.1-1.2.4-.3.3-.5.7-.5,1.2v3.8h-1.1v-6.5h.8l.2.7h.2c.5-.5,1-.8,1.8-.8Z"/>
      <path d="M395.4,37.3c.6-.6,1.3-.9,2.2-.9s1.6.3,2.2.9c.6.6.9,1.5.8,2.7h-4.9c0,.6.3,1.1.6,1.4s.8.5,1.4.5,1.3-.3,1.6-.8h1.2c-.2.6-.6,1-1.1,1.4-.5.3-1.1.5-1.7.5-.8,0-1.6-.3-2.2-.9s-.9-1.4-.9-2.4.3-1.8.9-2.4ZM398.7,37.8c-.3-.3-.7-.5-1.2-.5s-.9.2-1.2.5-.6.7-.7,1.2h3.7c0-.5-.3-.9-.6-1.2Z"/>
      <path d="M402.7,37.3c.6-.6,1.3-.9,2.2-.9s1.6.3,2.2.9c.6.6.9,1.5.8,2.7h-4.9c0,.6.3,1.1.6,1.4s.8.5,1.4.5,1.3-.3,1.6-.8h1.2c-.2.6-.6,1-1.1,1.4-.5.3-1.1.5-1.7.5-.8,0-1.6-.3-2.2-.9s-.9-1.4-.9-2.4.3-1.8.9-2.4ZM406.1,37.8c-.3-.3-.7-.5-1.2-.5s-.9.2-1.2.5-.6.7-.7,1.2h3.7c0-.5-.3-.9-.6-1.2Z"/>
      <path d="M418.7,40.7c-.1.7-.5,1.3-1.1,1.7-.6.4-1.2.7-1.9.7s-1.6-.3-2.2-1c-.6-.6-.9-1.4-.9-2.4s.3-1.7.9-2.4c.6-.6,1.4-1,2.2-1s1.3.2,1.9.7.9,1,1.1,1.8h-1.2c-.1-.4-.4-.7-.7-1-.3-.3-.7-.4-1.1-.4s-1.1.2-1.4.6-.6,1-.6,1.6.2,1.2.6,1.6.8.6,1.4.6.8-.1,1.1-.4.6-.5.7-.9h1.2Z"/>
      <path d="M423.2,43c-.8,0-1.6-.3-2.2-1-.6-.6-.9-1.4-.9-2.4s.3-1.7.9-2.4c.6-.6,1.4-1,2.2-1s1.6.3,2.2,1c.6.6.9,1.4.9,2.4s-.3,1.7-.9,2.4c-.6.6-1.3.9-2.2.9ZM421.7,41.3c.4.4.8.6,1.4.6s1.1-.2,1.4-.6c.4-.4.6-1,.6-1.6s-.2-1.2-.6-1.6c-.4-.4-.8-.6-1.4-.6s-1.1.2-1.4.6-.6,1-.6,1.6.2,1.2.6,1.6Z"/>
      <path d="M432.1,36.4h1.1v6.5h-.8l-.2-.7h-.2c-.4.5-1,.8-1.8.8s-1.4-.3-1.9-.8-.6-1.3-.6-2.2v-3.5h1.1v3.1c0,1.6.5,2.4,1.6,2.4s1.6-.7,1.6-2.1v-3.4Z"/>
      <path d="M438.1,36.4c.8,0,1.4.3,1.8.8.4.5.6,1.3.6,2.2v3.5h-1.1v-3.1c0-.3,0-.6,0-.9,0-.3-.1-.5-.2-.8,0-.3-.3-.5-.5-.6-.2-.1-.5-.2-.8-.2-.5,0-.9.2-1.3.5-.3.3-.5.8-.5,1.4v3.7h-1.1v-6.5h.8l.2.7h.2c.5-.5,1.1-.8,1.9-.8Z"/>
      <path d="M445.2,41.8l.5.8c-.3.3-.7.4-1.1.4s-1-.2-1.3-.6c-.3-.4-.5-.9-.5-1.5v-3.6h-1.1v-.8h.4c.3,0,.5,0,.6-.2s.2-.4.2-.6v-1.2h1v2h1.6v.9h-1.6v3.5c0,.7.3,1.1.8,1.1s.4,0,.5-.2Z"/>
      <path d="M449.9,36.4h.4v1.1c-.2,0-.4,0-.5,0-.5,0-.8.1-1.2.4-.3.3-.5.7-.5,1.2v3.8h-1.1v-6.5h.8l.2.7h.2c.5-.5,1-.8,1.8-.8Z"/>
      <path d="M452.4,35.3c-.2,0-.4,0-.6-.2-.2-.2-.2-.4-.2-.6s0-.4.2-.6c.2-.2.4-.2.6-.2s.4,0,.6.2c.2.2.2.4.2.6s0,.4-.2.6-.4.2-.6.2ZM452.9,36.4v6.5h-1.1v-6.5h1.1Z"/>
      <path d="M455.5,37.3c.6-.6,1.3-.9,2.2-.9s1.6.3,2.2.9c.6.6.9,1.5.8,2.7h-4.9c0,.6.3,1.1.6,1.4s.8.5,1.4.5,1.3-.3,1.6-.8h1.2c-.2.6-.6,1-1.1,1.4s-1.1.5-1.7.5c-.8,0-1.6-.3-2.2-.9s-.9-1.4-.9-2.4.3-1.8.9-2.4ZM458.8,37.8c-.3-.3-.7-.5-1.2-.5s-.9.2-1.2.5c-.3.3-.6.7-.7,1.2h3.7c0-.5-.3-.9-.6-1.2Z"/>
      <path d="M466.6,41.1c0,.6-.2,1.1-.6,1.4-.4.3-1,.5-1.6.5s-1.3-.2-1.8-.6-.7-.9-.7-1.5h1.1c0,.4.1.7.4.9.3.2.6.3,1,.3s.6,0,.8-.2c.2-.2.3-.4.3-.7s-.1-.5-.3-.7c-.2-.1-.6-.3-1-.4-.2,0-.4-.1-.6-.2-.1,0-.3-.1-.5-.2s-.4-.2-.5-.3c-.1-.1-.2-.3-.3-.5,0-.2-.1-.4-.1-.7,0-.6.2-1,.6-1.3.4-.3.9-.5,1.5-.5s1.2.2,1.6.6.6.8.6,1.3h-1.1c0-.2-.1-.5-.3-.6-.2-.2-.5-.3-.9-.3s-.6,0-.8.2c-.2.2-.3.4-.3.6s.1.5.3.6c.2.1.5.3.9.4.3,0,.5.1.6.2.2,0,.3.1.6.2.2.1.4.2.5.3.1.1.2.3.3.5,0,.2.1.4.1.7Z"/>
      <path d="M474.9,41.8l.5.8c-.3.3-.7.4-1.1.4s-1-.2-1.3-.6-.5-.9-.5-1.5v-3.6h-1.1v-.8h.4c.3,0,.5,0,.6-.2.2-.2.2-.4.2-.6v-1.2h1v2h1.6v.9h-1.6v3.5c0,.7.3,1.1.8,1.1s.4,0,.5-.2Z"/>
      <path d="M479.7,36.4c.8,0,1.4.3,1.8.8.4.6.6,1.3.6,2.2v3.5h-1.1v-3.1c0-.3,0-.6,0-.9,0-.3-.1-.5-.2-.8,0-.3-.3-.5-.5-.6-.2-.1-.5-.2-.8-.2-.5,0-.9.2-1.3.5s-.5.8-.5,1.4v3.7h-1.1v-9.2h1.1v3.4h.1c.4-.5,1-.8,1.8-.8Z"/>
      <path d="M484.6,37.3c.6-.6,1.3-.9,2.2-.9s1.6.3,2.2.9c.6.6.9,1.5.8,2.7h-4.9c0,.6.3,1.1.6,1.4s.8.5,1.4.5,1.3-.3,1.6-.8h1.2c-.2.6-.6,1-1.1,1.4s-1.1.5-1.7.5c-.8,0-1.6-.3-2.2-.9s-.9-1.4-.9-2.4.3-1.8.9-2.4ZM487.9,37.8c-.3-.3-.7-.5-1.2-.5s-.9.2-1.2.5c-.3.3-.6.7-.7,1.2h3.7c0-.5-.3-.9-.6-1.2Z"/>
      <path d="M501.9,36.4c.7,0,1.3.3,1.7.8s.6,1.3.6,2.2v3.5h-1.1v-3.1c0-.4,0-.7,0-.9,0-.3,0-.5-.2-.8,0-.2-.2-.4-.4-.6-.2-.1-.4-.2-.7-.2-.4,0-.8.2-1.1.5-.3.3-.5.8-.5,1.3v3.8h-1.1v-3.1c0-.4,0-.7,0-.9,0-.3,0-.5-.2-.8,0-.2-.2-.4-.4-.6-.2-.1-.4-.2-.7-.2-.4,0-.8.2-1.1.5-.3.3-.5.8-.5,1.4v3.7h-1.1v-6.5h.8l.2.7h.2c.5-.5,1-.8,1.7-.8s1.3.3,1.8,1h.2c.5-.7,1.2-1,2-1Z"/>
      <path d="M508.7,43c-.8,0-1.6-.3-2.2-1-.6-.6-.9-1.4-.9-2.4s.3-1.7.9-2.4c.6-.6,1.4-1,2.2-1s1.6.3,2.2,1c.6.6.9,1.4.9,2.4s-.3,1.7-.9,2.4c-.6.6-1.3.9-2.2.9ZM507.3,41.3c.4.4.8.6,1.4.6s1.1-.2,1.4-.6.6-1,.6-1.6-.2-1.2-.6-1.6-.8-.6-1.4-.6-1.1.2-1.4.6c-.4.4-.6,1-.6,1.6s.2,1.2.6,1.6Z"/>
      <path d="M517.9,41.1c0,.6-.2,1.1-.6,1.4-.4.3-1,.5-1.6.5s-1.3-.2-1.8-.6-.7-.9-.7-1.5h1.1c0,.4.1.7.4.9.3.2.6.3,1,.3s.6,0,.8-.2c.2-.2.3-.4.3-.7s-.1-.5-.3-.7c-.2-.1-.6-.3-1-.4-.2,0-.4-.1-.6-.2-.1,0-.3-.1-.5-.2s-.4-.2-.5-.3c-.1-.1-.2-.3-.3-.5,0-.2-.1-.4-.1-.7,0-.6.2-1,.6-1.3.4-.3.9-.5,1.5-.5s1.2.2,1.6.6.6.8.6,1.3h-1.1c0-.2-.1-.5-.3-.6-.2-.2-.5-.3-.9-.3s-.6,0-.8.2c-.2.2-.3.4-.3.6s.1.5.3.6c.2.1.5.3.9.4.3,0,.5.1.6.2.2,0,.3.1.6.2.2.1.4.2.5.3.1.1.2.3.3.5,0,.2.1.4.1.7Z"/>
      <path d="M522.4,41.8l.5.8c-.3.3-.7.4-1.1.4s-1-.2-1.3-.6c-.3-.4-.5-.9-.5-1.5v-3.6h-1.1v-.8h.4c.3,0,.5,0,.6-.2s.2-.4.2-.6v-1.2h1v2h1.6v.9h-1.6v3.5c0,.7.3,1.1.8,1.1s.4,0,.5-.2Z"/>
      <path d="M530.5,35c-.1-.1-.3-.2-.5-.2-.5,0-.8.4-.8,1.1v.5h1.6v.9h-1.6v5.6h-1.1v-5.6h-1v-.9h1v-.6c0-.6.2-1.1.5-1.5.3-.4.7-.6,1.3-.6s.8.1,1.1.4l-.5.8Z"/>
      <path d="M534.6,43c-.8,0-1.6-.3-2.2-1-.6-.6-.9-1.4-.9-2.4s.3-1.7.9-2.4c.6-.6,1.4-1,2.2-1s1.6.3,2.2,1c.6.6.9,1.4.9,2.4s-.3,1.7-.9,2.4c-.6.6-1.3.9-2.2.9ZM533.2,41.3c.4.4.8.6,1.4.6s1.1-.2,1.4-.6.6-1,.6-1.6-.2-1.2-.6-1.6-.8-.6-1.4-.6-1.1.2-1.4.6c-.4.4-.6,1-.6,1.6s.2,1.2.6,1.6Z"/>
      <path d="M542.1,36.4h.4v1.1c-.2,0-.4,0-.5,0-.5,0-.8.1-1.2.4s-.5.7-.5,1.2v3.8h-1.1v-6.5h.8l.2.7h.2c.5-.5,1-.8,1.8-.8Z"/>
      <path d="M550.2,41.8l.5.8c-.3.3-.7.4-1.1.4s-1-.2-1.3-.6-.5-.9-.5-1.5v-3.6h-1.1v-.8h.4c.3,0,.5,0,.6-.2.2-.2.2-.4.2-.6v-1.2h1v2h1.6v.9h-1.6v3.5c0,.7.3,1.1.8,1.1s.4,0,.5-.2Z"/>
      <path d="M555,36.4c.8,0,1.4.3,1.8.8.4.6.6,1.3.6,2.2v3.5h-1.1v-3.1c0-.3,0-.6,0-.9,0-.3-.1-.5-.2-.8,0-.3-.3-.5-.5-.6-.2-.1-.5-.2-.8-.2-.5,0-.9.2-1.3.5s-.5.8-.5,1.4v3.7h-1.1v-9.2h1.1v3.4h.1c.4-.5,1-.8,1.8-.8Z"/>
      <path d="M559.9,37.3c.6-.6,1.3-.9,2.2-.9s1.6.3,2.2.9c.6.6.9,1.5.8,2.7h-4.9c0,.6.3,1.1.6,1.4s.8.5,1.4.5,1.3-.3,1.6-.8h1.2c-.2.6-.6,1-1.1,1.4s-1.1.5-1.7.5c-.8,0-1.6-.3-2.2-.9s-.9-1.4-.9-2.4.3-1.8.9-2.4ZM563.2,37.8c-.3-.3-.7-.5-1.2-.5s-.9.2-1.2.5c-.3.3-.6.7-.7,1.2h3.7c0-.5-.3-.9-.6-1.2Z"/>
      <path d="M567.1,35.3c-.2,0-.4,0-.6-.2-.2-.2-.2-.4-.2-.6s0-.4.2-.6c.2-.2.4-.2.6-.2s.4,0,.6.2c.2.2.2.4.2.6s0,.4-.2.6-.4.2-.6.2ZM567.6,36.4v6.5h-1.1v-6.5h1.1Z"/>
      <path d="M572.6,36.4h.4v1.1c-.2,0-.4,0-.5,0-.5,0-.8.1-1.2.4s-.5.7-.5,1.2v3.8h-1.1v-6.5h.8l.2.7h.2c.5-.5,1-.8,1.8-.8Z"/>
      <path d="M582,41.1c0,.6-.2,1.1-.6,1.4-.4.3-1,.5-1.6.5s-1.3-.2-1.8-.6-.7-.9-.7-1.5h1.1c0,.4.1.7.4.9.3.2.6.3,1,.3s.6,0,.8-.2c.2-.2.3-.4.3-.7s-.1-.5-.3-.7c-.2-.1-.6-.3-1-.4-.2,0-.4-.1-.6-.2-.1,0-.3-.1-.5-.2s-.4-.2-.5-.3c-.1-.1-.2-.3-.3-.5,0-.2-.1-.4-.1-.7,0-.6.2-1,.6-1.3.4-.3.9-.5,1.5-.5s1.2.2,1.6.6.6.8.6,1.3h-1.1c0-.2-.1-.5-.3-.6-.2-.2-.5-.3-.9-.3s-.6,0-.8.2c-.2.2-.3.4-.3.6s.1.5.3.6c.2.1.5.3.9.4.3,0,.5.1.6.2.2,0,.3.1.6.2.2.1.4.2.5.3.1.1.2.3.3.5,0,.2.1.4.1.7Z"/>
      <path d="M586.6,36.4c.8,0,1.5.3,2.1.9s.9,1.4.9,2.4-.3,1.7-.9,2.4-1.3.9-2.1.9-1.5-.3-2-1v3.6h-1.1v-9.1h.8l.2.8h.2c.5-.6,1.1-.9,1.9-.9ZM586.5,41.9c.5,0,1-.2,1.4-.6s.6-1,.6-1.6-.2-1.2-.6-1.6-.8-.6-1.4-.6-.9.2-1.3.6-.6.9-.6,1.7.2,1.3.6,1.7c.4.4.8.6,1.3.6Z"/>
      <path d="M595.9,41.3c0,.3,0,.5.2.6.1.1.3.2.5.2v.9h-.5c-.6,0-1-.3-1.2-.8-.4.6-1.1.8-1.9.8s-1.2-.2-1.6-.5c-.4-.4-.6-.8-.6-1.4s.1-.8.3-1.1.6-.5,1-.7c.5-.2.8-.3,1.1-.3.3,0,.7-.1,1.3-.2.1,0,.2,0,.3,0,0-1-.5-1.4-1.4-1.4s-.4,0-.6,0c-.2,0-.3.1-.4.2s-.2.2-.2.2c0,0,0,.1-.1.2h0c0,0-1.1,0-1.1,0,0-.5.3-.9.7-1.3.4-.4,1-.5,1.7-.5s1.3.2,1.7.6c.4.4.6,1.1.6,2v2.2ZM591.9,41.1c0,.4.2.7.7.8.5.1,1,0,1.4-.2.5-.3.7-.7.7-1.2v-.7c-.5,0-.8,0-1.1.1-.3,0-.6.1-.9.2s-.5.2-.7.4c-.1.2-.2.4-.2.6Z"/>
      <path d="M603.6,40.7c-.1.7-.5,1.3-1.1,1.7-.6.4-1.2.7-1.9.7s-1.6-.3-2.2-1c-.6-.6-.9-1.4-.9-2.4s.3-1.7.9-2.4c.6-.6,1.4-1,2.2-1s1.3.2,1.9.7.9,1,1.1,1.8h-1.2c-.1-.4-.4-.7-.7-1-.3-.3-.7-.4-1.1-.4s-1.1.2-1.4.6-.6,1-.6,1.6.2,1.2.6,1.6.8.6,1.4.6.8-.1,1.1-.4.6-.5.7-.9h1.2Z"/>
      <path d="M605.8,37.3c.6-.6,1.3-.9,2.2-.9s1.6.3,2.2.9c.6.6.9,1.5.8,2.7h-4.9c0,.6.3,1.1.6,1.4s.8.5,1.4.5,1.3-.3,1.6-.8h1.2c-.2.6-.6,1-1.1,1.4-.5.3-1.1.5-1.7.5-.8,0-1.6-.3-2.2-.9s-.9-1.4-.9-2.4.3-1.8.9-2.4ZM609.2,37.8c-.3-.3-.7-.5-1.2-.5s-.9.2-1.2.5-.6.7-.7,1.2h3.7c0-.5-.3-.9-.6-1.2Z"/>
      <path d="M623.2,36.4c.7,0,1.3.3,1.7.8s.6,1.3.6,2.2v3.5h-1.1v-3.1c0-.4,0-.7,0-.9,0-.3,0-.5-.2-.8,0-.2-.2-.4-.4-.6-.2-.1-.4-.2-.7-.2-.4,0-.8.2-1.1.5-.3.3-.5.8-.5,1.3v3.8h-1.1v-3.1c0-.4,0-.7,0-.9,0-.3,0-.5-.2-.8,0-.2-.2-.4-.4-.6-.2-.1-.4-.2-.7-.2-.4,0-.8.2-1.1.5-.3.3-.5.8-.5,1.4v3.7h-1.1v-6.5h.8l.2.7h.2c.5-.5,1-.8,1.7-.8s1.3.3,1.8,1h.2c.5-.7,1.2-1,2-1Z"/>
      <path d="M627.9,35.3c-.2,0-.4,0-.6-.2-.2-.2-.2-.4-.2-.6s0-.4.2-.6c.2-.2.4-.2.6-.2s.4,0,.6.2c.2.2.2.4.2.6s0,.4-.2.6-.4.2-.6.2ZM628.4,36.4v6.5h-1.1v-6.5h1.1Z"/>
      <path d="M634.7,41.1c0,.6-.2,1.1-.6,1.4s-1,.5-1.6.5-1.3-.2-1.8-.6c-.5-.4-.7-.9-.7-1.5h1.1c0,.4.1.7.4.9.3.2.6.3,1,.3s.6,0,.8-.2c.2-.2.3-.4.3-.7s-.1-.5-.3-.7c-.2-.1-.6-.3-1-.4-.2,0-.4-.1-.6-.2-.1,0-.3-.1-.5-.2-.2-.1-.4-.2-.5-.3-.1-.1-.2-.3-.3-.5,0-.2-.1-.4-.1-.7,0-.6.2-1,.6-1.3.4-.3.9-.5,1.5-.5s1.2.2,1.6.6c.4.4.6.8.6,1.3h-1.1c0-.2-.1-.5-.3-.6-.2-.2-.5-.3-.9-.3s-.6,0-.8.2c-.2.2-.3.4-.3.6s.1.5.3.6c.2.1.5.3.9.4.3,0,.5.1.6.2.2,0,.3.1.6.2.2.1.4.2.5.3.1.1.2.3.3.5,0,.2.1.4.1.7Z"/>
      <path d="M640.6,41.1c0,.6-.2,1.1-.6,1.4-.4.3-1,.5-1.6.5s-1.3-.2-1.8-.6-.7-.9-.7-1.5h1.1c0,.4.1.7.4.9.3.2.6.3,1,.3s.6,0,.8-.2c.2-.2.3-.4.3-.7s-.1-.5-.3-.7c-.2-.1-.6-.3-1-.4-.2,0-.4-.1-.6-.2-.1,0-.3-.1-.5-.2s-.4-.2-.5-.3c-.1-.1-.2-.3-.3-.5,0-.2-.1-.4-.1-.7,0-.6.2-1,.6-1.3.4-.3.9-.5,1.5-.5s1.2.2,1.6.6.6.8.6,1.3h-1.1c0-.2-.1-.5-.3-.6-.2-.2-.5-.3-.9-.3s-.6,0-.8.2c-.2.2-.3.4-.3.6s.1.5.3.6c.2.1.5.3.9.4.3,0,.5.1.6.2.2,0,.3.1.6.2.2.1.4.2.5.3.1.1.2.3.3.5,0,.2.1.4.1.7Z"/>
      <path d="M642.8,35.3c-.2,0-.4,0-.6-.2s-.2-.4-.2-.6,0-.4.2-.6c.2-.2.4-.2.6-.2s.4,0,.6.2c.2.2.2.4.2.6s0,.4-.2.6c-.2.2-.4.2-.6.2ZM643.3,36.4v6.5h-1.1v-6.5h1.1Z"/>
      <path d="M648.1,43c-.8,0-1.6-.3-2.2-1-.6-.6-.9-1.4-.9-2.4s.3-1.7.9-2.4c.6-.6,1.4-1,2.2-1s1.6.3,2.2,1c.6.6.9,1.4.9,2.4s-.3,1.7-.9,2.4c-.6.6-1.3.9-2.2.9ZM646.6,41.3c.4.4.8.6,1.4.6s1.1-.2,1.4-.6c.4-.4.6-1,.6-1.6s-.2-1.2-.6-1.6c-.4-.4-.8-.6-1.4-.6s-1.1.2-1.4.6-.6,1-.6,1.6.2,1.2.6,1.6Z"/>
      <path d="M655.7,36.4c.8,0,1.4.3,1.8.8.4.5.6,1.3.6,2.2v3.5h-1.1v-3.1c0-.3,0-.6,0-.9,0-.3-.1-.5-.2-.8,0-.3-.3-.5-.5-.6-.2-.1-.5-.2-.8-.2-.5,0-.9.2-1.3.5s-.5.8-.5,1.4v3.7h-1.1v-6.5h.8l.2.7h.2c.5-.5,1.1-.8,1.9-.8Z"/>
      <path d="M664.4,41.1c0,.6-.2,1.1-.6,1.4-.4.3-1,.5-1.6.5s-1.3-.2-1.8-.6-.7-.9-.7-1.5h1.1c0,.4.1.7.4.9.3.2.6.3,1,.3s.6,0,.8-.2c.2-.2.3-.4.3-.7s-.1-.5-.3-.7c-.2-.1-.6-.3-1-.4-.2,0-.4-.1-.6-.2-.1,0-.3-.1-.5-.2s-.4-.2-.5-.3c-.1-.1-.2-.3-.3-.5,0-.2-.1-.4-.1-.7,0-.6.2-1,.6-1.3.4-.3.9-.5,1.5-.5s1.2.2,1.6.6.6.8.6,1.3h-1.1c0-.2-.1-.5-.3-.6-.2-.2-.5-.3-.9-.3s-.6,0-.8.2c-.2.2-.3.4-.3.6s.1.5.3.6c.2.1.5.3.9.4.3,0,.5.1.6.2.2,0,.3.1.6.2.2.1.4.2.5.3.1.1.2.3.3.5,0,.2.1.4.1.7Z"/>
    </g>
    <text class="st13" transform="translate(80.2 124.3)"><tspan x="0" y="0">Spain</tspan></text>
    <text class="st13" transform="translate(88.4 168.8)"><tspan x="0" y="0">Italy</tspan></text>
    <text class="st13" transform="translate(67.7 198.9)"><tspan x="0" y="0">Canada</tspan></text>
    <text class="st13" transform="translate(77 239.1)"><tspan x="0" y="0">Japan</tspan></text>
    <text class="st13" transform="translate(96.6 289.5)"><tspan x="0" y="0">UK</tspan></text>
    <text class="st13" transform="translate(97.3 378.4)"><tspan x="0" y="0">US</tspan></text>
    <text class="st13" transform="translate(57.8 143.1)"><tspan x="0" y="0">Germany</tspan></text>
    <text class="st13" transform="translate(68.6 92)"><tspan x="0" y="0">Pakistan</tspan></text>
    <text class="st13" transform="translate(568.8 112)"><tspan x="0" y="0">China</tspan></text>
    <text class="st13" transform="translate(568.8 179)"><tspan x="0" y="0">Russia</tspan></text>
    <text class="st13" transform="translate(568.8 326)"><tspan x="0" y="0">US</tspan></text>
    <text class="st14" transform="translate(62.8 73)"><tspan x="0" y="0">Satellite owned by</tspan></text>
    <text class="st14" transform="translate(496.6 74)"><tspan x="0" y="0">Launch site used</tspan></text>
    <text class="st11" transform="translate(6.6 428.8)"><tspan x="0" y="0">Note: Does not include a country using its own launch sites for a launch, eg. US using launch sites in the US.</tspan><tspan x="0" y="12">Source: Jonathan McDowell’s Space Report</tspan></text>
    <text class="st13" transform="translate(68.6 104.7)"><tspan x="0" y="0">Uruguay</tspan></text>
  </g>
  <g id="US_x5F_Russia">
    <path class="st15" d="M128.7,378.4c215,0,215-177.9,430-177.9"/>
  </g>
</svg>