<?xml version="1.0" encoding="UTF-8"?>
<svg id="mobile" xmlns="http://www.w3.org/2000/svg" xmlns:xlink="http://www.w3.org/1999/xlink" version="1.1" viewBox="0 0 357.8 488.3">
  <!-- Generator: Adobe Illustrator 29.3.1, SVG Export Plug-In . SVG Version: 2.1.0 Build 151)  -->
  <defs>
    <style>
      .st0 {
        stroke: url(#linear-gradient12);
        stroke-width: 3.4px;
      }

      .st0, .st1, .st2, .st3, .st4, .st5, .st6, .st7, .st8, .st9, .st10, .st11 {
        fill: none;
      }

      .st12 {
        font-size: 20px;
      }

      .st12, .st13 {
        font-family: Moderat-Bold, Moderat;
        font-weight: 700;
      }

      .st14 {
        font-size: 10px;
      }

      .st14, .st15, .st16 {
        font-family: Moderat-Regular, Moderat;
      }

      .st15, .st16, .st13 {
        font-size: 14px;
      }

      .st1 {
        stroke: url(#linear-gradient);
        stroke-width: 4.5px;
      }

      .st16, .st13 {
        isolation: isolate;
      }

      .st2 {
        stroke: url(#linear-gradient4);
        stroke-width: 6.3px;
      }

      .st3 {
        stroke: url(#linear-gradient8);
        stroke-width: 5.2px;
      }

      .st4 {
        stroke: url(#linear-gradient6);
        stroke-width: 8.1px;
      }

      .st5 {
        stroke: url(#linear-gradient2);
        stroke-width: 17.5px;
      }

      .st6 {
        stroke: url(#linear-gradient3);
        stroke-width: 19.6px;
      }

      .st7 {
        stroke: url(#linear-gradient1);
        stroke-width: 15.4px;
      }

      .st8 {
        stroke: url(#linear-gradient5);
        stroke-width: 19.4px;
      }

      .st9 {
        stroke: url(#linear-gradient7);
        stroke-width: 20.2px;
      }

      .st10 {
        stroke: url(#linear-gradient9);
        stroke-width: 61.5px;
      }

      .st11 {
        stroke: url(#linear-gradient11);
        stroke-width: 2.1px;
      }

      .st17 {
        fill: #242ef7;
        stroke: url(#linear-gradient10);
        stroke-width: 66.8px;
      }
    </style>
    <linearGradient id="linear-gradient" x1="75.1" y1="148" x2="297.8" y2="148" gradientUnits="userSpaceOnUse">
      <stop offset="0" stop-color="#fff"/>
      <stop offset="0" stop-color="#a1eae0"/>
      <stop offset="1" stop-color="#9ee9df"/>
    </linearGradient>
    <linearGradient id="linear-gradient1" x1="75.1" y1="226.4" x2="297.8" y2="226.4" gradientUnits="userSpaceOnUse">
      <stop offset="0" stop-color="#fff"/>
      <stop offset="0" stop-color="#ffbef0"/>
    </linearGradient>
    <linearGradient id="linear-gradient2" x1="75.1" y1="182.6" x2="297.8" y2="182.6" gradientUnits="userSpaceOnUse">
      <stop offset="0" stop-color="#fff"/>
      <stop offset="0" stop-color="#242ef7"/>
    </linearGradient>
    <linearGradient id="linear-gradient3" y1="257.6" y2="257.6" xlink:href="#linear-gradient1"/>
    <linearGradient id="linear-gradient4" y1="209" y2="209" xlink:href="#linear-gradient2"/>
    <linearGradient id="linear-gradient5" y1="283.3" y2="283.3" xlink:href="#linear-gradient1"/>
    <linearGradient id="linear-gradient6" y1="228.5" y2="228.5" xlink:href="#linear-gradient2"/>
    <linearGradient id="linear-gradient7" y1="309.2" y2="309.2" xlink:href="#linear-gradient1"/>
    <linearGradient id="linear-gradient8" y1="247.9" y2="247.9" xlink:href="#linear-gradient2"/>
    <linearGradient id="linear-gradient9" y1="355" y2="355" xlink:href="#linear-gradient1"/>
    <linearGradient id="linear-gradient10" y1="321" y2="321" xlink:href="#linear-gradient2"/>
    <linearGradient id="linear-gradient11" x1="75.1" y1="141.9" x2="297.8" y2="141.9" gradientUnits="userSpaceOnUse">
      <stop offset="0" stop-color="#fff"/>
      <stop offset="0" stop-color="#9ee9df"/>
    </linearGradient>
    <linearGradient id="linear-gradient12" y1="263.4" x2="297.9" y2="263.4" xlink:href="#linear-gradient11"/>
  </defs>
  <g id="node_border">
    <rect x="69.8" y="132.8" width="5.3" height="2.2"/>
    <rect x="69.8" y="140.3" width="5.3" height="4.7"/>
    <rect x="297.8" y="148.7" width="5.3" height="10.6"/>
    <rect x="69.8" y="153.3" width="5.3" height="16.4"/>
    <rect x="69.8" y="176" width="5.3" height="18.6"/>
    <rect x="69.8" y="195.9" width="5.3" height="20.8"/>
    <rect x="69.8" y="222.1" width="5.3" height="27.2"/>
    <rect x="69.8" y="254.6" width="5.3" height="30"/>
    <rect x="69.8" y="289.9" width="5.3" height="70.8"/>
    <rect x="69.8" y="366" width="5.3" height="74.4"/>
    <rect x="297.8" y="170" width="5.3" height="101"/>
    <rect x="297.8" y="283" width="5.3" height="135"/>
  </g>
  <path id="Uruguay_x5F_China" class="st1" d="M75.1,142.7c111.4,0,111.4,10.6,222.8,10.6"/>
  <path id="Spain_x5F_US" class="st7" d="M75.1,161.5c111.4,0,111.4,129.8,222.8,129.8"/>
  <path id="Germany_x5F_Russia" class="st5" d="M75.1,186.3c111.4,0,111.4-7.5,222.8-7.5"/>
  <path id="Italy_x5F_US" class="st6" d="M75.1,207.4c111.4,0,111.4,100.6,222.8,100.6"/>
  <path id="Canada_x5F_Russia" class="st2" d="M75.1,228.4c111.4,0,111.4-38.9,222.8-38.9"/>
  <path id="Canada_x5F_US" class="st8" d="M75.1,239c111.4,0,111.4,88.6,222.8,88.6"/>
  <path id="Japan_x5F_Russia" class="st4" d="M75.1,260.9c111.4,0,111.4-64.8,222.8-64.8"/>
  <path id="Japan_x5F_US" class="st9" d="M75.1,271.9c111.4,0,111.4,74.7,222.8,74.7"/>
  <path id="UK_x5F_Russia" class="st3" d="M75.1,293.7c111.4,0,111.4-91.4,222.8-91.4"/>
  <path id="UK_x5F_US" class="st10" d="M75.1,323.1c111.4,0,111.4,63.8,222.8,63.8"/>
  <path id="US_x5F_Russia" class="st17" d="M75.1,406c111.4,0,111.4-170,222.8-170"/>
  <text class="st12" transform="translate(4.1 16.1)"><tspan x="0" y="0">Top customers for US, China and </tspan><tspan x="0" y="24">Russia’s space launch sites</tspan></text>
  <text class="st15" transform="translate(3.5 60.1)"><tspan x="0" y="0">Since 1957, European countries have used launch </tspan><tspan x="0" y="16.8">sites in these three countries the most for their </tspan></text>
  <text class="st13" transform="translate(5.2 103.5)"><tspan x="0" y="0">Satellite owned by</tspan></text>
  <text class="st13" transform="translate(236 103.5)"><tspan x="0" y="0">Launch site used</tspan></text>
  <text class="st16" transform="translate(30.6 165.8)"><tspan x="0" y="0">Spain</tspan></text>
  <text class="st16" transform="translate(36.7 210.4)"><tspan x="0" y="0">Italy</tspan></text>
  <text class="st16" transform="translate(19.1 241.5)"><tspan x="0" y="0">Canada</tspan></text>
  <text class="st16" transform="translate(27.3 273.7)"><tspan x="0" y="0">Japan</tspan></text>
  <text class="st16" transform="translate(45 331)"><tspan x="0" y="0">UK</tspan></text>
  <text class="st16" transform="translate(44.7 414.9)"><tspan x="0" y="0">US</tspan></text>
  <text class="st16" transform="translate(8.2 189.7)"><tspan x="0" y="0">Germany</tspan></text>
  <text class="st16" transform="translate(12.3 132.7)"><tspan x="0" y="0">Pakistan</tspan></text>
  <text class="st16" transform="translate(310.4 156.3)"><tspan x="0" y="0">China</tspan></text>
  <text class="st16" transform="translate(309.4 210.3)"><tspan x="0" y="0">Russia</tspan></text>
  <text class="st16" transform="translate(310.4 344.3)"><tspan x="0" y="0">US</tspan></text>
  <text class="st16" transform="translate(15.5 145.9)"><tspan x="0" y="0">Uruguay</tspan></text>
  <path id="Pakistan_x5F_China" class="st11" d="M75.1,133.9c111.4,0,111.4,15.9,222.8,15.9"/>
  <text class="st14" transform="translate(0 460.8)"><tspan x="0" y="0">Note: Does not include a country using its own launch sites for a launch, eg. </tspan><tspan x="0" y="12">US using launch sites in the US.</tspan><tspan x="0" y="24">Source: Jonathan McDowell’s Space Report</tspan></text>
  <path id="US_x5F_China" class="st0" d="M75.1,370.8c111.4,0,111.4-214.8,222.9-214.8"/>
</svg>