<?xml version="1.0" encoding="UTF-8"?>
<svg id="desktop" xmlns="http://www.w3.org/2000/svg" xmlns:xlink="http://www.w3.org/1999/xlink" version="1.1" viewBox="0 0 658.7 438.5">
  <!-- Generator: Adobe Illustrator 29.3.1, SVG Export Plug-In . SVG Version: 2.1.0 Build 151)  -->
  <defs>
    <style>
      .st0 {
        stroke: url(#linear-gradient14);
        stroke-width: 3.9px;
      }

      .st0, .st1, .st2, .st3, .st4, .st5, .st6, .st7, .st8, .st9 {
        fill: none;
      }

      .st1 {
        stroke: url(#linear-gradient10);
        stroke-width: 6.1px;
      }

      .st10 {
        fill: #ffbef0;
        stroke: url(#linear-gradient11);
        stroke-width: 71.4px;
      }

      .st11 {
        font-size: 20px;
      }

      .st11, .st12 {
        font-family: Moderat-Bold, Moderat;
        font-weight: 700;
      }

      .st13 {
        font-size: 10px;
      }

      .st13, .st14, .st15 {
        font-family: Moderat-Regular, Moderat;
      }

      .st14, .st15, .st12 {
        font-size: 14px;
      }

      .st2 {
        stroke: url(#linear-gradient);
        stroke-width: 22.8px;
      }

      .st15, .st12 {
        isolation: isolate;
      }

      .st3 {
        stroke: url(#linear-gradient3);
        stroke-width: 2.4px;
      }

      .st4 {
        stroke: url(#linear-gradient5);
        stroke-width: 7.3px;
      }

      .st5 {
        stroke: url(#linear-gradient4);
        stroke-width: 5.2px;
      }

      .st6 {
        stroke: url(#linear-gradient8);
        stroke-width: 9.4px;
      }

      .st7 {
        stroke: url(#linear-gradient9);
        stroke-width: 23.4px;
      }

      .st8 {
        stroke: url(#linear-gradient2);
        stroke-width: 17.9px;
      }

      .st9 {
        stroke: url(#linear-gradient1);
        stroke-width: 20.3px;
      }

      .st16 {
        fill: url(#linear-gradient12);
        stroke: url(#linear-gradient13);
        stroke-width: 77.4px;
      }

      .st17 {
        fill: url(#linear-gradient6);
        stroke: url(#linear-gradient7);
        stroke-width: 22.5px;
      }
    </style>
    <linearGradient id="linear-gradient" x1="124.7" y1="214.1" x2="554.7" y2="214.1" gradientUnits="userSpaceOnUse">
      <stop offset="0" stop-color="#fff"/>
      <stop offset="0" stop-color="#ffbef0"/>
    </linearGradient>
    <linearGradient id="linear-gradient1" x1="124.7" y1="128.4" x2="554.7" y2="128.4" gradientUnits="userSpaceOnUse">
      <stop offset="0" stop-color="#fff"/>
      <stop offset="0" stop-color="#242ef7"/>
    </linearGradient>
    <linearGradient id="linear-gradient2" x1="124.7" y1="178.5" x2="554.7" y2="178.5" gradientUnits="userSpaceOnUse">
      <stop offset="0" stop-color="#fff"/>
      <stop offset="0" stop-color="#ffc1f1"/>
      <stop offset="1" stop-color="#ffbef0"/>
    </linearGradient>
    <linearGradient id="linear-gradient3" x1="124.7" y1="90.9" x2="554.7" y2="90.9" gradientUnits="userSpaceOnUse">
      <stop offset="0" stop-color="#fff"/>
      <stop offset="0" stop-color="#9ee9df"/>
    </linearGradient>
    <linearGradient id="linear-gradient4" y1="97.2" y2="97.2" xlink:href="#linear-gradient3"/>
    <linearGradient id="linear-gradient5" y1="158.6" y2="158.6" xlink:href="#linear-gradient1"/>
    <linearGradient id="linear-gradient6" y1="242.8" y2="242.8" xlink:href="#linear-gradient"/>
    <linearGradient id="linear-gradient7" y1="242.8" y2="242.8" xlink:href="#linear-gradient"/>
    <linearGradient id="linear-gradient8" y1="180.7" y2="180.7" xlink:href="#linear-gradient1"/>
    <linearGradient id="linear-gradient9" y1="273" y2="273" xlink:href="#linear-gradient"/>
    <linearGradient id="linear-gradient10" y1="202.7" y2="202.7" xlink:href="#linear-gradient1"/>
    <linearGradient id="linear-gradient11" y1="325.9" y2="325.9" xlink:href="#linear-gradient"/>
    <linearGradient id="linear-gradient12" x1="124.7" y1="284.6" x2="554.7" y2="284.6" gradientUnits="userSpaceOnUse">
      <stop offset="1" stop-color="#242ef7"/>
      <stop offset="1" stop-color="#000"/>
    </linearGradient>
    <linearGradient id="linear-gradient13" y1="284.6" y2="284.6" xlink:href="#linear-gradient1"/>
    <linearGradient id="linear-gradient14" y1="219.8" y2="219.8" xlink:href="#linear-gradient3"/>
  </defs>
  <g id="Italy_x5F_US">
    <path class="st2" d="M124.7,159.5c215,0,215,109.2,430,109.2"/>
  </g>
  <g id="Germany_x5F_Russia">
    <path class="st9" d="M124.7,132.9c215,0,215-9,430-9"/>
  </g>
  <g id="Spain_x5F_US">
    <path class="st8" d="M124.7,108.8c215,0,215,139.5,430,139.5"/>
  </g>
  <g id="Pakistan_x5F_China">
    <path class="st3" d="M124.7,83.4c215,0,215,15,430,15"/>
  </g>
  <g id="Uruguay_x5F_China">
    <path class="st5" d="M124.7,92.2c215,0,215,10,430,10"/>
  </g>
  <g id="node_borders">
    <rect x="119.7" y="82.2" width="5" height="2.4"/>
    <rect x="119.7" y="89.7" width="5" height="5.2"/>
    <rect x="554.7" y="97.2" width="5" height="11.5"/>
    <rect x="119.7" y="99.8" width="5" height="17.9"/>
    <rect x="119.7" y="122.7" width="5" height="20.3"/>
    <rect x="119.7" y="148.1" width="5" height="22.8"/>
    <rect x="119.7" y="175.9" width="5" height="29.8"/>
    <rect x="119.7" y="210.6" width="5" height="32.8"/>
    <rect x="119.7" y="248.4" width="5" height="77.4"/>
    <rect x="119.7" y="330.8" width="5" height="81.4"/>
    <rect x="554.7" y="113.8" width="5" height="120.6"/>
    <rect x="554.7" y="239.3" width="5" height="157.9"/>
  </g>
  <g id="Canada_x5F_Russia">
    <path class="st4" d="M124.7,179.5c215,0,215-41.7,430-41.7"/>
  </g>
  <g id="Canada_x5F_US">
    <path class="st17" d="M124.7,194.4c215,0,215,96.9,430,96.9"/>
  </g>
  <g id="Japan_x5F_Russia">
    <path class="st6" d="M124.7,215.3c215,0,215-69.2,430-69.2"/>
  </g>
  <g id="Japan_x5F_US">
    <path class="st7" d="M124.7,231.7c215,0,215,82.5,430,82.5"/>
  </g>
  <g id="UK_x5F_Russia">
    <path class="st1" d="M124.7,251.5c215,0,215-97.6,430-97.6"/>
  </g>
  <g id="UK_x5F_US">
    <path class="st10" d="M124.7,290.2c215,0,215,71.4,430,71.4"/>
  </g>
  <g id="text">
    <text class="st11" transform="translate(3.1 17.3)"><tspan x="0" y="0">Top customers for US, China and Russia’s space launch sites</tspan></text>
    <text class="st14" transform="translate(3.1 38.8)"><tspan x="0" y="0">Since 1957, European countries have used launch sites in these three countries the most for their </tspan><tspan x="0" y="16.8">space missions</tspan></text>
    <text class="st15" transform="translate(76.2 119.4)"><tspan x="0" y="0">Spain</tspan></text>
    <text class="st15" transform="translate(84.4 163.9)"><tspan x="0" y="0">Italy</tspan></text>
    <text class="st15" transform="translate(63.7 194)"><tspan x="0" y="0">Canada</tspan></text>
    <text class="st15" transform="translate(73 234.2)"><tspan x="0" y="0">Japan</tspan></text>
    <text class="st15" transform="translate(92.6 284.6)"><tspan x="0" y="0">UK</tspan></text>
    <text class="st15" transform="translate(93.3 373.5)"><tspan x="0" y="0">US</tspan></text>
    <text class="st15" transform="translate(53.8 138.2)"><tspan x="0" y="0">Germany</tspan></text>
    <text class="st15" transform="translate(64.6 87.1)"><tspan x="0" y="0">Pakistan</tspan></text>
    <text class="st15" transform="translate(564.8 107.1)"><tspan x="0" y="0">China</tspan></text>
    <text class="st15" transform="translate(564.8 174.1)"><tspan x="0" y="0">Russia</tspan></text>
    <text class="st15" transform="translate(564.8 321.1)"><tspan x="0" y="0">US</tspan></text>
    <text class="st12" transform="translate(58.8 66.1)"><tspan x="0" y="0">Satellite owned by</tspan></text>
    <text class="st12" transform="translate(492.6 69.1)"><tspan x="0" y="0">Launch site used</tspan></text>
    <text class="st13" transform="translate(2.6 423.9)"><tspan x="0" y="0">Note: Does not include a country using its own launch sites for a launch, eg. US using launch sites in the US.</tspan><tspan x="0" y="12">Source: Jonathan McDowell’s Space Report</tspan></text>
    <text class="st15" transform="translate(64.6 99.8)"><tspan x="0" y="0">Uruguay</tspan></text>
  </g>
  <g id="US_x5F_Russia">
    <path class="st16" d="M124.7,373.5c215,0,215-177.9,430-177.9"/>
  </g>
  <g id="US_x5F_China">
    <path class="st0" d="M124.7,332.8c215,0,215-226,430-226"/>
  </g>
</svg>